<svg width="200" height="107" viewBox="0 0 200 107" fill="none" xmlns="http://www.w3.org/2000/svg">
<path d="M1 48.5616V48.5616C31.5168 30.7602 69.2525 30.7602 99.7692 48.5616V48.5616V48.5616C130.286 66.363 168.022 66.3631 198.538 48.5616V48.5616" stroke="#256CFD" stroke-width="2.46923" stroke-linecap="round" stroke-linejoin="round"/>
<path d="M1 38.6846V38.6846C31.5168 20.8832 69.2525 20.8832 99.7692 38.6846V38.6846V38.6846C130.286 56.4861 168.022 56.4861 198.538 38.6846V38.6846" stroke="#256CFD" stroke-width="2.46923" stroke-linecap="round" stroke-linejoin="round"/>
<path d="M1 28.8077V28.8077C31.5168 11.0062 69.2525 11.0062 99.7692 28.8077V28.8077V28.8077C130.286 46.6091 168.022 46.6091 198.538 28.8077V28.8077" stroke="#256CFD" stroke-width="2.46923" stroke-linecap="round" stroke-linejoin="round"/>
<path d="M1 58.4386V58.4386C31.5168 40.6371 69.2525 40.6371 99.7692 58.4386V58.4386V58.4386C130.286 76.24 168.022 76.24 198.538 58.4386V58.4386" stroke="#256CFD" stroke-width="2.46923" stroke-linecap="round" stroke-linejoin="round"/>
<path d="M1 68.3155V68.3155C31.5168 50.5141 69.2525 50.5141 99.7692 68.3155V68.3155V68.3155C130.286 86.117 168.022 86.117 198.538 68.3155V68.3155" stroke="#256CFD" stroke-width="2.46923" stroke-linecap="round" stroke-linejoin="round"/>
<path d="M1 78.1922V78.1922C31.5168 60.3908 69.2525 60.3908 99.7692 78.1922V78.1922V78.1922C130.286 95.9937 168.022 95.9937 198.538 78.1922V78.1922" stroke="#256CFD" stroke-width="2.46923" stroke-linecap="round" stroke-linejoin="round"/>
</svg>
