<svg width="162" height="160" viewBox="0 0 162 160" fill="none" xmlns="http://www.w3.org/2000/svg">
<rect width="4.37475" height="4.37475" rx="1.34409" fill="#256CFD"/>
<rect x="17.4995" width="4.37475" height="4.37475" rx="1.34409" fill="#256CFD"/>
<rect x="34.998" width="4.37475" height="4.37475" rx="1.34409" fill="#256CFD"/>
<rect x="52.4971" width="4.37475" height="4.37475" rx="1.34409" fill="#256CFD"/>
<rect x="69.9956" width="4.37475" height="4.37475" rx="1.34409" fill="#256CFD"/>
<rect x="87.4951" width="4.37475" height="4.37475" rx="1.34409" fill="#256CFD"/>
<rect x="104.994" width="4.37475" height="4.37475" rx="1.34409" fill="#256CFD"/>
<rect x="122.493" width="4.37475" height="4.37475" rx="1.34409" fill="#256CFD"/>
<rect x="139.992" width="4.37475" height="4.37475" rx="1.34409" fill="#256CFD"/>
<rect x="157.491" width="4.37475" height="4.37475" rx="1.34409" fill="#256CFD"/>
<rect y="17.499" width="4.37475" height="4.37475" rx="1.34409" fill="#256CFD"/>
<rect x="17.4995" y="17.499" width="4.37475" height="4.37475" rx="1.34409" fill="#256CFD"/>
<rect x="34.998" y="17.499" width="4.37475" height="4.37475" rx="1.34409" fill="#256CFD"/>
<rect x="52.4971" y="17.499" width="4.37475" height="4.37475" rx="1.34409" fill="#256CFD"/>
<rect x="69.9956" y="17.499" width="4.37475" height="4.37475" rx="1.34409" fill="#256CFD"/>
<rect x="87.4951" y="17.499" width="4.37475" height="4.37475" rx="1.34409" fill="#256CFD"/>
<rect x="104.994" y="17.499" width="4.37475" height="4.37475" rx="1.34409" fill="#256CFD"/>
<rect x="122.493" y="17.499" width="4.37475" height="4.37475" rx="1.34409" fill="#256CFD"/>
<rect x="139.992" y="17.499" width="4.37475" height="4.37475" rx="1.34409" fill="#256CFD"/>
<rect x="157.491" y="17.499" width="4.37475" height="4.37475" rx="1.34409" fill="#256CFD"/>
<rect y="34.9978" width="4.37475" height="4.37475" rx="1.34409" fill="#256CFD"/>
<rect x="17.4995" y="34.9978" width="4.37475" height="4.37475" rx="1.34409" fill="#256CFD"/>
<rect x="34.998" y="34.9978" width="4.37475" height="4.37475" rx="1.34409" fill="#256CFD"/>
<rect x="52.4971" y="34.9978" width="4.37475" height="4.37475" rx="1.34409" fill="#256CFD"/>
<rect x="69.9956" y="34.9978" width="4.37475" height="4.37475" rx="1.34409" fill="#256CFD"/>
<rect x="87.4951" y="34.9978" width="4.37475" height="4.37475" rx="1.34409" fill="#256CFD"/>
<rect x="104.994" y="34.9978" width="4.37475" height="4.37475" rx="1.34409" fill="#256CFD"/>
<rect x="122.493" y="34.9978" width="4.37475" height="4.37475" rx="1.34409" fill="#256CFD"/>
<rect x="139.992" y="34.9978" width="4.37475" height="4.37475" rx="1.34409" fill="#256CFD"/>
<rect x="157.491" y="34.9978" width="4.37475" height="4.37475" rx="1.34409" fill="#256CFD"/>
<rect y="52.4968" width="4.37475" height="4.37475" rx="1.34409" fill="#256CFD"/>
<rect x="17.4995" y="52.4968" width="4.37475" height="4.37475" rx="1.34409" fill="#256CFD"/>
<rect x="34.998" y="52.4968" width="4.37475" height="4.37475" rx="1.34409" fill="#256CFD"/>
<rect x="52.4971" y="52.4968" width="4.37475" height="4.37475" rx="1.34409" fill="#256CFD"/>
<rect x="69.9956" y="52.4968" width="4.37475" height="4.37475" rx="1.34409" fill="#256CFD"/>
<rect x="87.4951" y="52.4968" width="4.37475" height="4.37475" rx="1.34409" fill="#256CFD"/>
<rect x="104.994" y="52.4968" width="4.37475" height="4.37475" rx="1.34409" fill="#256CFD"/>
<rect x="122.493" y="52.4968" width="4.37475" height="4.37475" rx="1.34409" fill="#256CFD"/>
<rect x="139.992" y="52.4968" width="4.37475" height="4.37475" rx="1.34409" fill="#256CFD"/>
<rect x="157.491" y="52.4968" width="4.37475" height="4.37475" rx="1.34409" fill="#256CFD"/>
<rect y="69.9961" width="4.37475" height="4.37475" rx="1.34409" fill="#256CFD"/>
<rect x="17.4995" y="69.9961" width="4.37475" height="4.37475" rx="1.34409" fill="#256CFD"/>
<rect x="34.998" y="69.9961" width="4.37475" height="4.37475" rx="1.34409" fill="#256CFD"/>
<rect x="52.4971" y="69.9961" width="4.37475" height="4.37475" rx="1.34409" fill="#256CFD"/>
<rect x="69.9956" y="69.9961" width="4.37475" height="4.37475" rx="1.34409" fill="#256CFD"/>
<rect x="87.4951" y="69.9961" width="4.37475" height="4.37475" rx="1.34409" fill="#256CFD"/>
<rect x="104.994" y="69.9961" width="4.37475" height="4.37475" rx="1.34409" fill="#256CFD"/>
<rect x="122.493" y="69.9961" width="4.37475" height="4.37475" rx="1.34409" fill="#256CFD"/>
<rect x="139.992" y="69.9961" width="4.37475" height="4.37475" rx="1.34409" fill="#256CFD"/>
<rect x="157.491" y="69.9961" width="4.37475" height="4.37475" rx="1.34409" fill="#256CFD"/>
<rect y="87.495" width="4.37475" height="4.37475" rx="1.34409" fill="#256CFD"/>
<rect x="17.4995" y="87.495" width="4.37475" height="4.37475" rx="1.34409" fill="#256CFD"/>
<rect x="34.998" y="87.495" width="4.37475" height="4.37475" rx="1.34409" fill="#256CFD"/>
<rect x="52.4971" y="87.495" width="4.37475" height="4.37475" rx="1.34409" fill="#256CFD"/>
<rect x="69.9956" y="87.495" width="4.37475" height="4.37475" rx="1.34409" fill="#256CFD"/>
<rect x="87.4951" y="87.495" width="4.37475" height="4.37475" rx="1.34409" fill="#256CFD"/>
<rect x="104.994" y="87.495" width="4.37475" height="4.37475" rx="1.34409" fill="#256CFD"/>
<rect x="122.493" y="87.495" width="4.37475" height="4.37475" rx="1.34409" fill="#256CFD"/>
<rect x="139.992" y="87.495" width="4.37475" height="4.37475" rx="1.34409" fill="#256CFD"/>
<rect x="157.491" y="87.495" width="4.37475" height="4.37475" rx="1.34409" fill="#256CFD"/>
<rect y="104.994" width="4.37475" height="4.37475" rx="1.34409" fill="#256CFD"/>
<rect y="121.871" width="4.37475" height="4.37475" rx="1.34409" fill="#256CFD"/>
<rect y="138.748" width="4.37475" height="4.37475" rx="1.34409" fill="#256CFD"/>
<rect y="155.625" width="4.37475" height="4.37475" rx="1.34409" fill="#256CFD"/>
<rect x="17.4995" y="104.994" width="4.37475" height="4.37475" rx="1.34409" fill="#256CFD"/>
<rect x="17.4995" y="121.871" width="4.37475" height="4.37475" rx="1.34409" fill="#256CFD"/>
<rect x="17.4995" y="138.748" width="4.37475" height="4.37475" rx="1.34409" fill="#256CFD"/>
<rect x="17.4995" y="155.625" width="4.37475" height="4.37475" rx="1.34409" fill="#256CFD"/>
<rect x="34.998" y="104.994" width="4.37475" height="4.37475" rx="1.34409" fill="#256CFD"/>
<rect x="34.998" y="121.871" width="4.37475" height="4.37475" rx="1.34409" fill="#256CFD"/>
<rect x="34.998" y="138.748" width="4.37475" height="4.37475" rx="1.34409" fill="#256CFD"/>
<rect x="34.998" y="155.625" width="4.37475" height="4.37475" rx="1.34409" fill="#256CFD"/>
<rect x="52.4971" y="104.994" width="4.37475" height="4.37475" rx="1.34409" fill="#256CFD"/>
<rect x="52.4971" y="121.871" width="4.37475" height="4.37475" rx="1.34409" fill="#256CFD"/>
<rect x="52.4971" y="138.748" width="4.37475" height="4.37475" rx="1.34409" fill="#256CFD"/>
<rect x="52.4971" y="155.625" width="4.37475" height="4.37475" rx="1.34409" fill="#256CFD"/>
<rect x="69.9956" y="104.994" width="4.37475" height="4.37475" rx="1.34409" fill="#256CFD"/>
<rect x="69.9956" y="121.871" width="4.37475" height="4.37475" rx="1.34409" fill="#256CFD"/>
<rect x="69.9956" y="138.748" width="4.37475" height="4.37475" rx="1.34409" fill="#256CFD"/>
<rect x="69.9956" y="155.625" width="4.37475" height="4.37475" rx="1.34409" fill="#256CFD"/>
<rect x="87.4951" y="104.994" width="4.37475" height="4.37475" rx="1.34409" fill="#256CFD"/>
<rect x="87.4951" y="121.871" width="4.37475" height="4.37475" rx="1.34409" fill="#256CFD"/>
<rect x="87.4951" y="138.748" width="4.37475" height="4.37475" rx="1.34409" fill="#256CFD"/>
<rect x="87.4951" y="155.625" width="4.37475" height="4.37475" rx="1.34409" fill="#256CFD"/>
<rect x="104.994" y="104.994" width="4.37475" height="4.37475" rx="1.34409" fill="#256CFD"/>
<rect x="104.994" y="121.871" width="4.37475" height="4.37475" rx="1.34409" fill="#256CFD"/>
<rect x="104.994" y="138.748" width="4.37475" height="4.37475" rx="1.34409" fill="#256CFD"/>
<rect x="104.994" y="155.625" width="4.37475" height="4.37475" rx="1.34409" fill="#256CFD"/>
<rect x="122.493" y="104.994" width="4.37475" height="4.37475" rx="1.34409" fill="#256CFD"/>
<rect x="122.493" y="121.871" width="4.37475" height="4.37475" rx="1.34409" fill="#256CFD"/>
<rect x="122.493" y="138.748" width="4.37475" height="4.37475" rx="1.34409" fill="#256CFD"/>
<rect x="122.493" y="155.625" width="4.37475" height="4.37475" rx="1.34409" fill="#256CFD"/>
<rect x="139.992" y="104.994" width="4.37475" height="4.37475" rx="1.34409" fill="#256CFD"/>
<rect x="139.992" y="121.871" width="4.37475" height="4.37475" rx="1.34409" fill="#256CFD"/>
<rect x="139.992" y="138.748" width="4.37475" height="4.37475" rx="1.34409" fill="#256CFD"/>
<rect x="139.992" y="155.625" width="4.37475" height="4.37475" rx="1.34409" fill="#256CFD"/>
<rect x="157.491" y="104.994" width="4.37475" height="4.37475" rx="1.34409" fill="#256CFD"/>
<rect x="157.491" y="121.871" width="4.37475" height="4.37475" rx="1.34409" fill="#256CFD"/>
<rect x="157.491" y="138.748" width="4.37475" height="4.37475" rx="1.34409" fill="#256CFD"/>
<rect x="157.491" y="155.625" width="4.37475" height="4.37475" rx="1.34409" fill="#256CFD"/>
</svg>
